<svg xmlns="http://www.w3.org/2000/svg" width="132" height="132" viewBox="0 0 132 132">
    <g fill="none" fill-rule="evenodd">
        <circle cx="65.7" cy="65.7" r="65.25" fill="#FFF" stroke="#D2E4FF" stroke-width=".9"/>
        <g fill-rule="nonzero">
            <path fill="#BDDBFF" d="M72.618 65.103c.092 1.391 1.812 2.507 3.926 2.507 2.113 0 3.833-1.116 3.925-2.507 1.075.167 2.1.565 3.006 1.168a7.856 7.856 0 0 1 3.571 6.59v6.565H66.041v-6.564a7.856 7.856 0 0 1 3.57-6.59 7.503 7.503 0 0 1 3.007-1.17z"/>
            <path fill="#BDDBFF" d="M73.84 61.61c.051.247.078.497.078.749a3.9 3.9 0 0 1-1.09 2.704l-.21.04a7.503 7.503 0 0 0-3.006 1.168 3.938 3.938 0 0 1 .367-7.85v-6.565a6.564 6.564 0 1 1 13.129 0v6.565a3.938 3.938 0 0 1 .367 7.85 7.503 7.503 0 0 0-3.006-1.168l-.21-.04a3.9 3.9 0 0 1-1.09-2.704c0-.252.027-.502.079-.748a5.251 5.251 0 0 0 2.547-4.503v-2.626h-.223c-.7 0-1.37-.279-1.865-.775l-1.85-1.85-1.09 1.09a5.251 5.251 0 0 1-3.716 1.535h-1.759v2.626a4.97 4.97 0 0 0 .276 1.654 5.212 5.212 0 0 0 1.26 2.061 4.81 4.81 0 0 0 1.011.775v.013zM62.103 51.856v2.626h-1.536c-.7 0-1.37-.279-1.865-.775l-1.85-1.85-1.09 1.09a5.251 5.251 0 0 1-3.716 1.535h-3.072v-2.626a6.564 6.564 0 1 1 13.129 0zM58.164 64.985a7.877 7.877 0 0 1 7.877 7.877v6.564H45.036v-6.564a7.877 7.877 0 0 1 7.877-7.877l2.625 2.625 2.626-2.625z"/>
            <path fill="#3D9AE2" d="M99.46 38.62a22.318 22.318 0 0 0-31.563 0l-1.856 1.856-1.856-1.857a22.318 22.318 0 1 0-31.563 31.562l32.49 32.49a1.313 1.313 0 0 0 1.857 0l32.491-32.49c8.715-8.716 8.715-22.846 0-31.562zM60.79 53.17h-.225c-.348 0-.683-.139-.93-.385l-1.856-1.857a1.313 1.313 0 0 0-1.856 0l-1.088 1.089a3.965 3.965 0 0 1-2.785 1.152h-1.763v-1.313a5.251 5.251 0 1 1 10.503 0v1.313zm-8.74 2.625a6.52 6.52 0 0 0 4.641-1.922l.16-.16.928.928a3.886 3.886 0 0 0 1.698.983v1.484a3.938 3.938 0 1 1-7.877 0v-1.313h.45zm3.488 7.877c.441 0 .881-.044 1.313-.131v.901l-1.313 1.313-1.312-1.313v-.901c.432.087.872.131 1.312.13zm-3.119 2.675l1.807 1.807v4.708h2.625v-4.708l1.807-1.807a6.552 6.552 0 0 1 6.07 6.515v5.25h-1.313V71.55H60.79v6.564H50.287v-6.564h-2.625v6.564h-1.313v-5.251a6.552 6.552 0 0 1 6.07-6.515zm13.622 33.54L46.892 80.738H85.19L66.04 99.888zm17.69-34.99c-.86-.505-1.8-.86-2.779-1.05a2.57 2.57 0 0 1-.47-1.488v-.037a6.578 6.578 0 0 0 2.114-2.691c.162.068.336.103.512.102a2.626 2.626 0 0 1 2.625 2.626 2.584 2.584 0 0 1-2.002 2.538zm-3.249-7.79a3.938 3.938 0 0 1-5.842 3.45 1.171 1.171 0 0 0-.148-.099 3.458 3.458 0 0 1-.725-.553 3.915 3.915 0 0 1-.96-1.575 3.609 3.609 0 0 1-.202-1.222v-1.313h.45a6.52 6.52 0 0 0 4.641-1.922l.16-.16.929.928a3.914 3.914 0 0 0 1.697 1.003v1.464zM75.1 63.497a6.103 6.103 0 0 0 2.9 0c.162.714.475 1.385.918 1.97a3.816 3.816 0 0 1-4.742 0c.445-.584.76-1.256.924-1.97zm6.696-10.327h-.225c-.348 0-.683-.138-.93-.384l-1.855-1.857a1.313 1.313 0 0 0-1.857 0l-1.088 1.089a3.965 3.965 0 0 1-2.785 1.152h-1.763v-1.313a5.251 5.251 0 1 1 10.503 0v1.313zm-11.298 6.457A6.588 6.588 0 0 0 71.9 61.75c.22.202.453.386.7.553v.055a2.57 2.57 0 0 1-.47 1.487c-.98.19-1.92.546-2.78 1.05a2.584 2.584 0 0 1-1.996-2.537 2.626 2.626 0 0 1 2.625-2.626c.178 0 .354-.037.518-.107zm-.156 7.737a6.236 6.236 0 0 1 1.444-.705 5.481 5.481 0 0 0 4.759 2.265 5.485 5.485 0 0 0 4.763-2.263c.51.173.995.412 1.444.71a6.535 6.535 0 0 1 2.982 5.492v5.25h-1.312V71.55h-2.626v6.564H71.292v-6.564h-2.625v6.564h-1.313v-5.251a6.54 6.54 0 0 1 2.987-5.499zm27.263.961l-9.245 9.245v-4.707a9.146 9.146 0 0 0-2.354-6.135 5.196 5.196 0 0 0 2.354-4.368 5.263 5.263 0 0 0-3.938-5.086v-5.417a7.877 7.877 0 0 0-15.754 0v5.417a5.263 5.263 0 0 0-3.939 5.086 5.199 5.199 0 0 0 2.355 4.369c-.39.437-.737.912-1.035 1.417a9.216 9.216 0 0 0-6.571-4.38v-1.444a6.534 6.534 0 0 0 2.626-5.213v-1.313c.725 0 1.312-.588 1.312-1.313v-2.626a7.877 7.877 0 0 0-15.753 0v2.626c0 .725.587 1.313 1.312 1.313v1.313a6.534 6.534 0 0 0 2.626 5.217v1.444a9.204 9.204 0 0 0-7.877 9.093v4.707l-9.245-9.245c-7.69-7.69-7.69-20.159 0-27.85 7.691-7.69 20.16-7.689 27.85.002l2.785 2.784a1.313 1.313 0 0 0 1.856 0l2.785-2.784c7.69-7.691 20.159-7.691 27.85-.001 7.69 7.69 7.69 20.159 0 27.85z"/>
            <path fill="#3D9AE2" d="M95.258 57.884l2.408 1.05c.399-.917.701-1.873.901-2.853l-2.571-.525c-.165.8-.412 1.58-.738 2.328zM98.862 53.17c-.01-7.972-6.47-14.432-14.441-14.442v2.626c6.522.008 11.807 5.293 11.815 11.815h2.626z"/>
        </g>
    </g>
</svg>
