<svg xmlns="http://www.w3.org/2000/svg" width="24" height="24" viewBox="0 0 24 24">
    <g fill="none" fill-rule="nonzero">
        <path fill="#FFF" d="M20.484 0H3.516A3.52 3.52 0 0 0 0 3.516v16.968A3.52 3.52 0 0 0 3.516 24h16.968A3.52 3.52 0 0 0 24 20.484V3.516A3.52 3.52 0 0 0 20.484 0zm-8.437 18.281a6.335 6.335 0 0 1-6.328-6.328 6.335 6.335 0 0 1 6.328-6.328 6.335 6.335 0 0 1 6.328 6.328 6.335 6.335 0 0 1-6.328 6.328zm7.031-11.25a2.112 2.112 0 0 1-2.11-2.11c0-1.162.947-2.109 2.11-2.109 1.163 0 2.11.947 2.11 2.11 0 1.163-.947 2.11-2.11 2.11z"/>
        <path fill="#000" d="M19.078 4.219a.704.704 0 1 0 .001 1.407.704.704 0 0 0 0-1.407zM12.047 7.031a4.928 4.928 0 0 0-4.922 4.922 4.928 4.928 0 0 0 4.922 4.922 4.928 4.928 0 0 0 4.922-4.922 4.928 4.928 0 0 0-4.922-4.922z"/>
    </g>
</svg>
