<svg xmlns="http://www.w3.org/2000/svg" width="132" height="132" viewBox="0 0 132 132">
    <g fill="none" fill-rule="evenodd">
        <circle cx="65.7" cy="65.7" r="65.25" fill="#FFF" stroke="#D2E4FF" stroke-width=".9"/>
        <g fill-rule="nonzero">
            <path fill="#BDDBFF" d="M94.784 93.28v10.24H74.61V93.28h17.652zM77.131 29.28c1.391.004 2.518 1.148 2.522 2.56-.01 1.41-1.133 2.55-2.522 2.56H54.435c-1.39-.004-2.517-1.148-2.522-2.56.01-1.41 1.134-2.55 2.522-2.56h22.696zM77.131 36.96V47.2c0 4.242-3.387 7.68-7.565 7.68h-7.565c-4.179 0-7.566-3.438-7.566-7.68V34.4h22.696v2.56zm-6.72 7.437a1.29 1.29 0 0 0 .46-1.434 1.263 1.263 0 0 0-1.204-.883h-2.055l-.63-1.984a1.263 1.263 0 0 0-1.199-.88c-.544 0-1.027.355-1.198.88l-.63 1.984H61.9a1.263 1.263 0 0 0-1.204.883 1.29 1.29 0 0 0 .46 1.434l1.664 1.216-.63 1.984a1.29 1.29 0 0 0 .456 1.435 1.246 1.246 0 0 0 1.486-.002l1.651-1.228 1.652 1.228a1.246 1.246 0 0 0 1.486.002 1.29 1.29 0 0 0 .456-1.435l-.63-1.984 1.664-1.216zM74.61 72.8v5.12H56.957V72.8h15.131z"/>
            <path fill="#BDDBFF" d="M72.088 65.12v7.68h-12.61v-7.68h8.827zM63.261 54.88h5.044v10.24h-5.044zM56.957 93.28v10.24H36.783V93.28h17.652z"/>
            <g fill="#3D9AE2">
                <path d="M93.523 48.48c-2.786 0-5.044 2.292-5.044 5.12-2.089 0-3.782 1.72-3.782 3.84-2.09 0-3.783 1.72-3.783 3.84v12.613l-4.876 8.576c-.11.195-.168.416-.168.64V92h-1.26a1.27 1.27 0 0 0-1.261 1.28v10.24c0 .707.564 1.28 1.26 1.28h20.175a1.27 1.27 0 0 0 1.26-1.28V93.28a1.27 1.27 0 0 0-1.26-1.28h-1.261v-.83l4.767-6.05c.18-.227.277-.51.277-.8V53.6c0-2.828-2.259-5.12-5.044-5.12zm-5.044 7.68v8.49a4.898 4.898 0 0 0-1.26.337V57.44c0-.707.564-1.28 1.26-1.28zm-5.043 5.12c0-.707.564-1.28 1.26-1.28v7.244l-1.26 2.216v-8.18zm10.087 40.96H75.87v-7.68h17.653v7.68zm2.522-18.37l-4.768 6.05c-.179.227-.276.51-.276.8V92H78.392v-8.554l8.548-15.027c.027-.034.052-.07.076-.107a2.554 2.554 0 0 1 2.094-1.144c.152.008.303.026.453.052.283.044.557.141.805.287 1.206.71 1.62 2.274.928 3.501L84.084 83.68l2.184 1.28 7.212-12.672c1.385-2.457.553-5.588-1.861-7.004a5.151 5.151 0 0 0-.618-.286V53.6c0-1.414 1.13-2.56 2.522-2.56 1.393 0 2.522 1.146 2.522 2.56v30.27z"/>
                <path d="M78.392 97.12h2.522v2.56h-2.522zM51.913 48.48h1.362c.63 4.403 4.343 7.671 8.726 7.68v7.68h-2.522a1.27 1.27 0 0 0-1.261 1.28v6.4h-1.261a1.27 1.27 0 0 0-1.26 1.28v5.12c0 .707.564 1.28 1.26 1.28H74.61a1.27 1.27 0 0 0 1.26-1.28V72.8a1.27 1.27 0 0 0-1.26-1.28h-1.261v-6.4a1.27 1.27 0 0 0-1.261-1.28h-2.522v-7.68c4.382-.009 8.096-3.277 8.725-7.68h1.362c3.482 0 6.305-2.865 6.305-6.4s-2.823-6.4-6.305-6.4h-1.26v-.236c1.735-.62 2.777-2.421 2.465-4.262-.312-1.841-1.886-3.186-3.727-3.182H54.435c-1.84-.004-3.414 1.34-3.726 3.182-.312 1.84.73 3.642 2.465 4.262v.236h-1.26c-3.482 0-6.305 2.865-6.305 6.4s2.823 6.4 6.304 6.4zM73.35 76.64H58.218v-2.56h15.13v2.56zm-2.522-5.12H60.74V66.4h10.087v5.12zm-3.783-7.68h-2.522v-7.68h2.522v7.68zm2.522-10.24h-7.565c-3.48-.004-6.3-2.867-6.305-6.4V35.68H75.87V47.2c-.004 3.533-2.824 6.396-6.304 6.4zm10.087-15.36c2.09 0 3.783 1.72 3.783 3.84s-1.694 3.84-3.783 3.84h-1.26v-7.68h1.26zm-25.218-7.68h22.696c.697 0 1.261.573 1.261 1.28a1.27 1.27 0 0 1-1.26 1.28H54.434a1.27 1.27 0 0 1-1.26-1.28c0-.707.564-1.28 1.26-1.28zm-2.522 7.68h1.261v7.68h-1.26c-2.09 0-3.783-1.72-3.783-3.84s1.693-3.84 3.782-3.84zM56.957 92h-1.26v-8.896c0-.225-.058-.445-.169-.64l-4.875-8.57V61.28c0-2.12-1.694-3.84-3.783-3.84 0-2.12-1.694-3.84-3.783-3.84 0-2.828-2.258-5.12-5.043-5.12-2.786 0-5.044 2.292-5.044 5.12v30.72c0 .29.097.573.276.8l4.768 6.05V92h-1.261a1.27 1.27 0 0 0-1.261 1.28v10.24c0 .707.564 1.28 1.26 1.28h20.175a1.27 1.27 0 0 0 1.26-1.28V93.28a1.27 1.27 0 0 0-1.26-1.28zm-8.826-30.72v8.18l-1.261-2.216V60c.696 0 1.26.573 1.26 1.28zm-3.783-3.84v7.552a4.867 4.867 0 0 0-1.26-.34V56.16c.696 0 1.26.573 1.26 1.28zM40.29 89.92l-4.767-6.05V53.6c0-1.414 1.129-2.56 2.522-2.56 1.392 0 2.521 1.146 2.521 2.56v11.398a5.205 5.205 0 0 0-.63.295c-2.406 1.419-3.232 4.544-1.849 6.995L45.3 84.96l2.184-1.28-7.213-12.672c-.69-1.221-.283-2.78.913-3.492.253-.15.531-.25.821-.296.15-.026.3-.044.453-.052.448 0 .887.123 1.27.358a2.4 2.4 0 0 1 .824.786c.024.036.066.101.092.136l8.531 14.998V92H40.565v-1.28c0-.29-.097-.573-.276-.8zm15.407 12.32H38.044v-7.68h17.652v7.68z"/>
                <path d="M50.653 97.12h2.521v2.56h-2.521zM69.664 40.8H68.53l-.351-1.093a2.526 2.526 0 0 0-2.396-1.76c-1.09 0-2.055.71-2.395 1.76l-.353 1.093H61.9a2.526 2.526 0 0 0-2.396 1.77 2.582 2.582 0 0 0 .914 2.86l.916.677-.342 1.093a2.582 2.582 0 0 0 .917 2.86 2.491 2.491 0 0 0 2.963 0l.911-.674.917.675c.88.664 2.085.664 2.964 0a2.542 2.542 0 0 0 .91-2.861l-.349-1.093.916-.677a2.582 2.582 0 0 0 .915-2.859 2.526 2.526 0 0 0-2.392-1.771zm-1.658 3.782a1.29 1.29 0 0 0-.457 1.43l.63 1.979-1.657-1.222a1.246 1.246 0 0 0-1.483 0l-1.656 1.22.63-1.977a1.29 1.29 0 0 0-.458-1.43l-1.653-1.222h2.05c.545 0 1.03-.357 1.198-.884l.63-1.993v.015l.631 1.978c.169.527.653.884 1.2.884h2.048l-1.653 1.222zM96.045 33.12v-2.56h-2.522v2.56h-2.522v2.56h2.522v2.56h2.522v-2.56h2.522v-2.56zM35.522 42.08h2.522v-2.56h2.521v-2.56h-2.521V34.4h-2.522v2.56H33v2.56h2.522z"/>
            </g>
        </g>
    </g>
</svg>
