<svg xmlns="http://www.w3.org/2000/svg" width="132" height="132" viewBox="0 0 132 132">
    <g fill="none" fill-rule="evenodd">
        <circle cx="65.7" cy="65.7" r="65.25" fill="#FFF" stroke="#D2E4FF" stroke-width=".9"/>
        <g fill-rule="nonzero">
            <path fill="#BDDBFF" d="M82.325 60.584v1.264c0 .697-.565 1.263-1.263 1.263h-5.054a1.241 1.241 0 0 1-1.238-1.06c2.4-.974 4.966-1.472 7.555-1.467zM69.691 71.955v5.053c0 .698-.565 1.264-1.263 1.264h-5.053c-.414 0-.8-.204-1.036-.544a20.14 20.14 0 0 1 2.476-7.037h3.613c.698 0 1.263.566 1.263 1.264z"/>
            <path fill="#BDDBFF" d="M82.325 78.272a2.527 2.527 0 1 0 2.527 2.526 2.535 2.535 0 0 0-2.527-2.526zm-1.263-15.16c.698 0 1.263-.567 1.263-1.264v-1.264a19.911 19.911 0 0 1 7.58 1.478v21.263a5.054 5.054 0 0 1-5.053 5.054H63.589a19.911 19.911 0 0 1-1.478-7.58 20.39 20.39 0 0 1 .228-3.07c.235.34.622.542 1.036.543h5.053c.698 0 1.263-.566 1.263-1.264v-5.053c0-.698-.565-1.264-1.263-1.264h-3.613a20.226 20.226 0 0 1 9.955-8.64c.09.612.618 1.065 1.238 1.06h5.054z"/>
            <path fill="#BDDBFF" d="M89.905 62.062a20.214 20.214 0 0 1-4.994 38.79A20.214 20.214 0 0 1 63.59 88.38h21.263a5.054 5.054 0 0 0 5.053-5.054V62.062zM89.905 40.37v5.054H29.263V40.37a5.054 5.054 0 0 1 5.054-5.053h10.107v2.527a2.527 2.527 0 0 0 5.053 0v-2.527h20.214v2.527a2.527 2.527 0 0 0 5.054 0v-2.527h10.107a5.054 5.054 0 0 1 5.053 5.053z"/>
            <g fill="#3D9AE2">
                <path d="M82.325 59.321c-11.861 0-21.477 9.616-21.477 21.477 0 11.862 9.616 21.478 21.477 21.478 11.862 0 21.478-9.616 21.478-21.478-.013-11.855-9.622-21.464-21.478-21.477zm0 40.428c-10.466 0-18.95-8.485-18.95-18.95 0-10.467 8.484-18.951 18.95-18.951s18.95 8.484 18.95 18.95c-.01 10.462-8.489 18.94-18.95 18.951z"/>
                <path d="M83.589 77.24v-7.812h-2.527v7.813a3.787 3.787 0 0 0-2.294 2.294h-5.286v2.527h5.286a3.781 3.781 0 1 0 4.82-4.821zm-1.264 4.822a1.263 1.263 0 1 1 0-2.527 1.263 1.263 0 0 1 0 2.527zM65.901 79.535h2.527v2.527h-2.527zM81.062 94.696h2.527v2.526h-2.527zM96.222 79.535h2.527v2.527h-2.527zM81.062 64.375h2.527V66.9h-2.527z"/>
                <path d="M30.527 83.325V46.687h58.115v11.37h2.527V40.37a6.324 6.324 0 0 0-6.317-6.316h-8.844V32.79a3.79 3.79 0 0 0-7.58 0v1.264H50.741V32.79a3.79 3.79 0 0 0-7.58 0v1.264h-8.844A6.324 6.324 0 0 0 28 40.37v42.955a6.324 6.324 0 0 0 6.317 6.317h25.267v-2.527H34.317a3.79 3.79 0 0 1-3.79-3.79zM70.955 32.79a1.263 1.263 0 0 1 2.527 0v5.054a1.263 1.263 0 0 1-2.527 0V32.79zm-25.268 0a1.263 1.263 0 0 1 2.527 0v5.054a1.263 1.263 0 0 1-2.527 0V32.79zm-11.37 3.79h8.844v1.264a3.79 3.79 0 0 0 7.58 0V36.58h17.687v1.264a3.79 3.79 0 0 0 7.58 0V36.58h8.844a3.79 3.79 0 0 1 3.79 3.79v3.79H30.527v-3.79a3.79 3.79 0 0 1 3.79-3.79z"/>
                <path d="M45.687 56.794a2.527 2.527 0 0 0-2.526-2.526h-5.054a2.527 2.527 0 0 0-2.527 2.526v5.054a2.527 2.527 0 0 0 2.527 2.527h5.054a2.527 2.527 0 0 0 2.526-2.527v-5.054zm-7.58 5.054v-5.054h5.054v5.054h-5.054zM58.321 56.794a2.527 2.527 0 0 0-2.527-2.526h-5.053a2.527 2.527 0 0 0-2.527 2.526v5.054a2.527 2.527 0 0 0 2.527 2.527h5.053a2.527 2.527 0 0 0 2.527-2.527v-5.054zm-7.58 5.054v-5.054h5.053v5.054h-5.053zM70.955 60.584v-3.79a2.527 2.527 0 0 0-2.527-2.526h-5.053a2.527 2.527 0 0 0-2.527 2.526v5.054a2.527 2.527 0 0 0 2.527 2.527H65.9v-2.527h-2.526v-5.054h5.053v3.79h2.527zM43.16 69.428h-5.053a2.527 2.527 0 0 0-2.527 2.527v5.053a2.527 2.527 0 0 0 2.527 2.527h5.054a2.527 2.527 0 0 0 2.526-2.527v-5.053a2.527 2.527 0 0 0-2.526-2.527zm-5.053 7.58v-5.053h5.054v5.053h-5.054zM55.794 69.428h-5.053a2.527 2.527 0 0 0-2.527 2.527v5.053a2.527 2.527 0 0 0 2.527 2.527h5.053a2.527 2.527 0 0 0 2.527-2.527v-5.053a2.527 2.527 0 0 0-2.527-2.527zm-5.053 7.58v-5.053h5.053v5.053h-5.053zM83.589 58.058v-1.264a2.527 2.527 0 0 0-2.527-2.526h-5.054a2.527 2.527 0 0 0-2.526 2.526v1.264h2.526v-1.264h5.054v1.264h2.527z"/>
            </g>
        </g>
    </g>
</svg>
