<svg xmlns="http://www.w3.org/2000/svg" width="339" height="79" viewBox="0 0 339 79">
    <g fill="none" fill-rule="evenodd">
        <path fill="#002358" fill-rule="nonzero" d="M86.718 62.67l1.168-3.231h4.267l1.094 3.231h1.601l-3.914-10.788H89.28l-4.06 10.788h1.497zm4.965-4.421h-3.378l1.74-4.766 1.638 4.766zm5.537 7.557v-4.017c.29.357.551.61.786.756.401.26.898.39 1.49.39.755 0 1.416-.233 1.984-.698.896-.735 1.344-1.959 1.344-3.672 0-1.268-.311-2.244-.933-2.927-.622-.683-1.378-1.024-2.27-1.024-.602 0-1.125.147-1.57.44a3.209 3.209 0 0 0-.867.83v-1.043h-1.286v10.965h1.322zm2.1-4.025c-.91 0-1.537-.406-1.88-1.219-.18-.426-.271-.942-.271-1.55 0-.753.09-1.375.272-1.865.337-.915.964-1.373 1.88-1.373.91 0 1.537.433 1.88 1.3.18.45.271.989.271 1.616 0 1.028-.204 1.8-.613 2.317-.409.516-.922.774-1.538.774zm7.16 1.153a3.59 3.59 0 0 0 1.668-.389c.504-.26.891-.565 1.16-.918.044.314.12.556.228.727.206.323.536.485.991.485.186 0 .333-.007.441-.022.108-.015.264-.052.47-.11v-.977a3.175 3.175 0 0 1-.235.033c-.073.007-.14.011-.198.011-.181 0-.3-.042-.356-.125a.58.58 0 0 1-.085-.33v-4.531c0-.745-.286-1.293-.86-1.645-.577-.353-1.328-.53-2.254-.53-.798 0-1.5.19-2.104.57-.604.38-.919 1.054-.943 2.023h1.233c.05-.406.155-.712.316-.918.289-.372.779-.558 1.469-.558.597 0 1.056.102 1.377.305.32.203.48.53.48.98 0 .22-.028.39-.087.507-.103.215-.306.343-.61.382l-2.107.264c-.74.093-1.337.34-1.792.742-.456.401-.683.967-.683 1.696 0 .666.231 1.22.694 1.664.462.443 1.058.664 1.788.664zm.31-1.123c-.383 0-.713-.11-.992-.33-.28-.221-.419-.522-.419-.904 0-.504.203-.871.61-1.102.24-.137.6-.237 1.08-.3l.8-.104a5.32 5.32 0 0 0 .749-.146c.255-.069.463-.155.624-.257v1.064c0 .813-.367 1.398-1.101 1.756a3.014 3.014 0 0 1-1.352.323zm7.3.859v-4.524c0-.558.178-1.051.535-1.48.358-.428.87-.642 1.535-.642a1.974 1.974 0 0 1 .433.037v-1.396a17.544 17.544 0 0 0-.3-.03 1.736 1.736 0 0 0-.126-.007c-.523 0-.986.19-1.388.57-.401.379-.653.7-.756.965v-1.358h-1.256v7.865h1.322zm5.5.125c.19 0 .368-.01.532-.03.164-.02.322-.05.474-.095v-1.043a3.946 3.946 0 0 1-.463.022c-.24 0-.411-.027-.514-.08-.186-.094-.279-.277-.279-.551v-5.134h1.256v-1.08h-1.256V52.61h-1.337v2.196h-1.064v1.08h1.064v5.206c0 .504.11.914.33 1.23.221.316.64.474 1.257.474zm4.443.14a3.59 3.59 0 0 0 1.667-.39c.504-.26.89-.565 1.16-.918.044.314.12.556.228.727.205.323.536.485.991.485.186 0 .333-.007.44-.022.109-.015.265-.052.47-.11v-.977a3.175 3.175 0 0 1-.234.033c-.074.007-.14.011-.198.011-.182 0-.3-.042-.357-.125a.58.58 0 0 1-.084-.33v-4.531c0-.745-.286-1.293-.86-1.645-.577-.353-1.329-.53-2.254-.53-.798 0-1.5.19-2.104.57-.605.38-.92 1.054-.944 2.023h1.234c.05-.406.154-.712.316-.918.289-.372.778-.558 1.469-.558.597 0 1.056.102 1.377.305.32.203.48.53.48.98 0 .22-.029.39-.087.507-.103.215-.306.343-.61.382l-2.108.264c-.739.093-1.336.34-1.791.742-.456.401-.683.967-.683 1.696 0 .666.23 1.22.694 1.664.462.443 1.058.664 1.788.664zm.308-1.124c-.382 0-.712-.11-.991-.33-.28-.221-.419-.522-.419-.904 0-.504.203-.871.61-1.102.24-.137.6-.237 1.08-.3l.8-.104a5.32 5.32 0 0 0 .749-.146c.254-.069.462-.155.624-.257v1.064c0 .813-.367 1.398-1.102 1.756a3.014 3.014 0 0 1-1.35.323zm7.263.859v-4.171c0-1.014.205-1.714.614-2.1.408-.387.862-.58 1.362-.58.548 0 .923.183 1.123.55.128.245.191.634.191 1.168v5.133h1.344v-4.575c0-.813.188-1.393.562-1.74a1.902 1.902 0 0 1 1.34-.522c.377 0 .697.098.959.294.262.195.393.555.393 1.08v5.463h1.373v-5.236c0-.695-.103-1.249-.308-1.66-.382-.764-1.102-1.146-2.16-1.146-.494 0-.94.102-1.336.305-.397.203-.742.516-1.036.937-.176-.343-.372-.603-.587-.779-.382-.308-.886-.463-1.513-.463-.553 0-1.048.15-1.483.448-.255.177-.539.458-.852.845v-1.116h-1.308v7.865h1.322zm14.277.28c.401 0 .761-.04 1.08-.118a3.08 3.08 0 0 0 1.49-.794c.24-.225.457-.515.65-.87.194-.355.307-.677.342-.966h-1.3a2.302 2.302 0 0 1-.5.918c-.41.456-.962.683-1.652.683-.74 0-1.285-.24-1.638-.723-.352-.482-.54-1.122-.565-1.92h5.765c0-.794-.04-1.371-.118-1.734a3.51 3.51 0 0 0-.528-1.388c-.275-.416-.674-.755-1.198-1.017a3.588 3.588 0 0 0-1.623-.393c-1.106 0-2.002.395-2.687 1.183-.686.788-1.029 1.814-1.029 3.077 0 1.283.34 2.28 1.021 2.993.68.712 1.51 1.068 2.49 1.068zm2.313-4.84h-4.37c.025-.676.243-1.233.654-1.671a2.01 2.01 0 0 1 1.528-.658c.847 0 1.451.319 1.814.955.195.343.32.8.374 1.373zm4.304 4.56v-4.12c0-.514.033-.91.099-1.186.066-.277.21-.545.43-.804.274-.323.592-.539.954-.646.2-.064.458-.096.771-.096.617 0 1.043.245 1.278.735.142.293.213.68.213 1.16v4.957h1.344v-5.045c0-.793-.108-1.403-.323-1.829-.392-.778-1.146-1.168-2.262-1.168-.51 0-.972.1-1.388.302-.416.2-.81.53-1.182.991v-1.116h-1.256v7.865h1.322zm8.893.125c.191 0 .369-.01.533-.03.164-.02.321-.05.473-.095v-1.043a3.946 3.946 0 0 1-.462.022c-.24 0-.412-.027-.515-.08-.186-.094-.279-.277-.279-.551v-5.134h1.256v-1.08h-1.256V52.61h-1.336v2.196h-1.065v1.08h1.065v5.206c0 .504.11.914.33 1.23.22.316.64.474 1.256.474zm5.111.176c1.087 0 1.896-.254 2.428-.764.53-.509.796-1.113.796-1.814 0-.724-.257-1.255-.77-1.593-.324-.216-.96-.438-1.91-.669l-.874-.212c-.382-.094-.67-.201-.867-.324-.337-.205-.506-.48-.506-.822 0-.313.128-.566.385-.757.257-.19.635-.286 1.135-.286.749 0 1.275.174 1.579.521.186.245.291.517.316.816h1.248c.01-.51-.15-.984-.477-1.425-.524-.695-1.379-1.043-2.563-1.043-.906 0-1.627.23-2.163.69-.536.46-.804 1.063-.804 1.807 0 .632.284 1.126.852 1.483.318.206.812.392 1.483.559l1.05.264c.563.142.94.267 1.131.375.299.176.448.433.448.77 0 .446-.186.775-.558.988-.372.213-.803.32-1.292.32-.823 0-1.4-.213-1.734-.64-.18-.234-.29-.572-.33-1.013h-1.27c.034.784.294 1.441.782 1.972.487.531 1.315.797 2.485.797zm9.995-4.509c.26 0 .482-.092.665-.275a.906.906 0 0 0 .276-.665c0-.26-.091-.481-.272-.665a.902.902 0 0 0-.669-.275.902.902 0 0 0-.668.275.912.912 0 0 0-.272.665c0 .26.092.481.276.665a.906.906 0 0 0 .664.275zm8.967 4.208v-5.045h5.611v5.045h1.476V51.882h-1.476v4.458h-5.61v-4.458h-1.477V62.67h1.476zm12.17.286c1.297 0 2.254-.413 2.87-1.24.618-.828.926-1.876.926-3.144 0-1.312-.35-2.306-1.05-2.982-.7-.675-1.557-1.013-2.57-1.013-1.132 0-2.032.392-2.703 1.175-.67.783-1.006 1.836-1.006 3.158 0 1.234.318 2.217.954 2.949.637.731 1.496 1.097 2.578 1.097zm.124-1.138c-.798 0-1.38-.279-1.748-.837-.367-.558-.55-1.256-.55-2.093 0-.872.183-1.616.55-2.233.367-.617.955-.925 1.763-.925.91 0 1.552.362 1.924 1.087.235.46.352 1.057.352 1.792 0 .813-.162 1.55-.488 2.214-.326.663-.927.995-1.803.995zm6.565.852v-4.171c0-1.014.205-1.714.614-2.1.409-.387.863-.58 1.362-.58.548 0 .923.183 1.124.55.127.245.19.634.19 1.168v5.133h1.344v-4.575c0-.813.188-1.393.562-1.74a1.902 1.902 0 0 1 1.34-.522c.378 0 .697.098.959.294.262.195.393.555.393 1.08v5.463h1.373v-5.236c0-.695-.103-1.249-.308-1.66-.382-.764-1.102-1.146-2.16-1.146-.494 0-.94.102-1.336.305-.397.203-.742.516-1.036.937-.176-.343-.372-.603-.587-.779-.382-.308-.886-.463-1.513-.463-.553 0-1.048.15-1.483.448-.255.177-.539.458-.852.845v-1.116h-1.307v7.865h1.321zm14.277.28c.401 0 .761-.04 1.08-.118a3.08 3.08 0 0 0 1.49-.794c.24-.225.457-.515.65-.87.194-.355.308-.677.342-.966h-1.3a2.302 2.302 0 0 1-.5.918c-.41.456-.962.683-1.652.683-.74 0-1.285-.24-1.638-.723-.352-.482-.54-1.122-.565-1.92h5.765c0-.794-.04-1.371-.118-1.734a3.51 3.51 0 0 0-.528-1.388c-.274-.416-.674-.755-1.197-1.017a3.588 3.588 0 0 0-1.623-.393c-1.107 0-2.003.395-2.688 1.183-.686.788-1.028 1.814-1.028 3.077 0 1.283.34 2.28 1.02 2.993.68.712 1.51 1.068 2.49 1.068zm2.313-4.84h-4.37c.025-.676.243-1.233.654-1.671a2.01 2.01 0 0 1 1.528-.658c.847 0 1.451.319 1.814.955.196.343.32.8.374 1.373zm8.24.352c.26 0 .481-.092.665-.275a.906.906 0 0 0 .275-.665c0-.26-.09-.481-.272-.665a.902.902 0 0 0-.668-.275.902.902 0 0 0-.668.275.912.912 0 0 0-.272.665c0 .26.092.481.276.665a.906.906 0 0 0 .664.275zm12.08 4.524c1.778 0 3.146-.627 4.106-1.88.818-1.068 1.227-2.407 1.227-4.017 0-1.489-.358-2.71-1.073-3.665-.915-1.224-2.325-1.836-4.23-1.836-1.821 0-3.197.666-4.127 1.998-.725 1.038-1.087 2.286-1.087 3.745 0 1.616.424 2.952 1.27 4.01.95 1.096 2.255 1.645 3.915 1.645zm.177-1.307c-1.356 0-2.336-.41-2.941-1.23-.605-.82-.907-1.828-.907-3.023 0-1.493.352-2.623 1.057-3.389.705-.766 1.616-1.15 2.732-1.15 1.15 0 2.058.388 2.721 1.161.664.774.995 1.795.995 3.063 0 1.2-.287 2.26-.863 3.183-.575.923-1.506 1.385-2.794 1.385zm8.357.991v-6.786h1.322v-1.043h-1.307c0-.851.04-1.381.118-1.59.078-.208.318-.312.72-.312.053 0 .11.002.172.004.061.002.16.009.297.018v-1.204a9.775 9.775 0 0 0-.3-.022 4.636 4.636 0 0 0-.258-.007c-.881 0-1.476.225-1.784.675-.172.255-.267.656-.287 1.205v1.233h-1.094v1.043h1.094v6.786h1.307zm3.915 0v-6.786h1.322v-1.043h-1.308c0-.851.04-1.381.118-1.59.078-.208.318-.312.72-.312.053 0 .111.002.172.004.061.002.16.009.298.018v-1.204a9.775 9.775 0 0 0-.301-.022 4.636 4.636 0 0 0-.257-.007c-.882 0-1.477.225-1.785.675-.171.255-.267.656-.286 1.205v1.233h-1.095v1.043h1.095v6.786h1.307zm3.885-9.29v-1.498h-1.344v1.498h1.344zm0 9.29v-7.829h-1.344v7.829h1.344zm4.84.228c.915 0 1.666-.241 2.254-.724.587-.482.955-1.245 1.101-2.287h-1.285c-.122.582-.344 1.041-.664 1.377-.321.335-.756.503-1.304.503-.715 0-1.239-.27-1.571-.808-.333-.539-.5-1.202-.5-1.99 0-.784.118-1.442.353-1.976.362-.822.964-1.234 1.806-1.234.617 0 1.065.16 1.344.481.28.321.458.724.536 1.208h1.285c-.112-1.052-.446-1.794-1.002-2.225-.556-.43-1.277-.646-2.163-.646-1.038 0-1.892.384-2.563 1.153-.67.769-1.006 1.843-1.006 3.224 0 1.126.306 2.065.918 2.816.612.752 1.432 1.128 2.46 1.128zm7.747.051c.402 0 .761-.04 1.08-.117a3.08 3.08 0 0 0 1.49-.794c.24-.225.457-.515.65-.87.194-.355.308-.677.342-.966h-1.3a2.302 2.302 0 0 1-.5.918c-.41.456-.961.683-1.652.683-.739 0-1.285-.24-1.637-.723-.353-.482-.541-1.122-.566-1.92h5.765c0-.794-.04-1.371-.117-1.734a3.51 3.51 0 0 0-.53-1.388c-.273-.416-.672-.755-1.196-1.017a3.588 3.588 0 0 0-1.623-.393c-1.107 0-2.003.395-2.688 1.183-.686.788-1.028 1.814-1.028 3.077 0 1.283.34 2.28 1.02 2.993.681.712 1.51 1.068 2.49 1.068zm2.313-4.84h-4.37c.025-.675.243-1.232.654-1.67a2.01 2.01 0 0 1 1.528-.658c.847 0 1.452.319 1.814.955.196.343.32.8.374 1.373z"/>
        <g font-family="Montserrat-Medium, Montserrat" font-size="25.895" font-weight="400">
            <text fill="#002358" transform="translate(85 14)">
                <tspan x="141" y="25">SERVICE</tspan>
            </text>
            <text fill="#00C0D0" transform="translate(85 14)">
                <tspan x="0" y="25">CLEANING</tspan>
            </text>
        </g>
        <g fill="#002358">
            <path d="M66.447 32.78l.508-.203c1.466-.593 2.321-2.227 2.11-4.057l-.068-.584L58.909 32l.356.466c1.118 1.465 2.87 2.058 4.336 1.465l1.076-.432c1.508 3.914 2.507 8.818 2.507 12.52 0 7.91-3.015 15.118-7.928 20.59V43.57c0-.44-.237-.855-.618-1.075a1.24 1.24 0 0 0-1.237 0l-6.31 3.616v-31.55c0-.39-.186-.763-.5-.991a1.258 1.258 0 0 0-1.092-.195l-26.215 7.877c-.525.16-.88.635-.88 1.186v11.95l-7.099 2.643a1.254 1.254 0 0 0-.804 1.16V67.88c-5.607-5.598-9.089-13.332-9.089-21.86 0-4.727 1.042-9.267 3.1-13.494.051-.11.077-.22.085-.33l6.361 3.083a.17.17 0 0 0 .229-.076l.296-.618a.17.17 0 0 0-.076-.23L.99 27.369a.17.17 0 0 0-.229.076l-.296.619a.17.17 0 0 0 .076.228l6.454 3.126a.815.815 0 0 0-.203.27A32.576 32.576 0 0 0 3.507 46.02c0 18.084 14.712 32.796 32.795 32.796 18.084 0 32.796-14.712 32.796-32.796 0-3.93-1.058-9.114-2.65-13.238zm-9.105 11.943v23.725c0 .034.017.059.017.093-1.889 1.77-3.99 3.329-6.276 4.582V48.314l6.259-3.59zm-8.165 29.323a31.305 31.305 0 0 1-5.133 1.83V52.338l5.133-2.94v24.648zM16.415 38.65l5.988-2.227v37.132a31.168 31.168 0 0 1-5.988-3.947V38.65zm13.882 37.658a30.457 30.457 0 0 1-5.988-1.83V35.711l5.988-2.227v42.824zm1.914.288V32.509a1.241 1.241 0 0 0-1.677-1.16l-6.225 2.32V22.93l24.868-7.47v31.737l-6.42 3.676c-.39.22-.627.636-.627 1.076v24.097c0 .102.025.187.06.28-1.907.372-3.872.576-5.888.576-1.389 0-2.752-.127-4.09-.305z"/>
            <path d="M15.61 33.458a.433.433 0 0 0 .534-.127l3.235-4.235a.43.43 0 0 0-.152-.652L3.252 20.702a.434.434 0 0 0-.61.288l-1.27 5.184c-.05.195.051.406.229.491l14.01 6.793zM60.154 25.293a.6.6 0 0 1-.085.839.606.606 0 0 1-.364.135.615.615 0 0 1-.474-.22l-2.787-3.43c-.042-.051-.06-.11-.085-.161l-2.397.965c-.61.246-.753 1.118-.296 1.728l4.489 5.87 10.698-4.311-.839-7.344c-.085-.762-.796-1.287-1.406-1.042l-9.13 3.676 2.676 3.295zM12.273 15.067l4.184.686a.344.344 0 0 1 .271.27l.686 4.185c.06.364.593.364.653 0l.686-4.184a.344.344 0 0 1 .27-.271l4.185-.686c.364-.06.364-.593 0-.653l-4.184-.686a.344.344 0 0 1-.271-.27l-.686-4.185c-.06-.364-.593-.364-.653 0l-.686 4.184a.344.344 0 0 1-.27.271l-4.185.686c-.364.06-.364.593 0 .653zM52.268 14.502l2.465.407a.198.198 0 0 1 .161.16l.407 2.466c.034.22.347.22.38 0l.407-2.465a.198.198 0 0 1 .161-.161l2.465-.407c.22-.034.22-.347 0-.38l-2.465-.407a.198.198 0 0 1-.16-.161l-.407-2.465c-.034-.22-.347-.22-.381 0l-.407 2.465a.198.198 0 0 1-.16.16l-2.466.407c-.22.034-.22.347 0 .381zM46.184 5.021l2.77.458c.093.016.16.084.178.177l.457 2.77c.043.246.39.246.432 0l.458-2.77a.216.216 0 0 1 .177-.177l2.77-.458c.246-.042.246-.39 0-.432l-2.77-.457a.216.216 0 0 1-.177-.178l-.458-2.77c-.042-.245-.39-.245-.432 0l-.457 2.77a.216.216 0 0 1-.178.178l-2.77.457c-.245.043-.245.39 0 .432z"/>
        </g>
        <g stroke="#00C0D0" stroke-linecap="round" stroke-width="1.9">
            <path d="M43 11.145l-3.997-4.086 3.658-.9a.09.09 0 0 0 .068-.088V1.11a.09.09 0 0 0-.109-.088L37 2.233V13M28 4v12l5.614-1.614"/>
        </g>
    </g>
</svg>
